<svg viewBox="0 0 1280 720" width="1280" height="720" xmlns="http://www.w3.org/2000/svg"><rect width="1280" height="720" fill="#BEF0ED"></rect><g transform="
        rotate(49 640 360) 
        translate(-638.5695676073897 -359.1953817791567) 
        scale(1.9977649493865464)
      "><path fill="rgb(105, 210, 231)" d="M0,82.578L12.549,92.325C25.098,102.072,50.196,121.566,75.294,123.296C100.392,125.026,125.49,108.993,150.588,106.556C175.686,104.12,200.784,115.281,225.882,111.145C250.98,107.008,276.078,87.574,301.176,88.404C326.275,89.234,351.373,110.329,376.471,115.923C401.569,121.516,426.667,111.607,451.765,104.554C476.863,97.502,501.961,93.304,527.059,87.554C552.157,81.805,577.255,74.502,602.353,69.86C627.451,65.218,652.549,63.235,677.647,63.619C702.745,64.003,727.843,66.754,752.941,64.101C778.039,61.449,803.137,53.394,828.235,52.282C853.333,51.17,878.431,57.002,903.529,65.499C928.627,73.996,953.725,85.159,978.824,85.854C1003.922,86.548,1029.02,76.775,1054.118,82.86C1079.216,88.945,1104.314,110.888,1129.412,121.7C1154.51,132.512,1179.608,132.193,1204.706,123.159C1229.804,114.125,1254.902,96.376,1267.451,87.502L1280,78.627L1280,1296L1267.451,1296C1254.902,1296,1229.804,1296,1204.706,1296C1179.608,1296,1154.51,1296,1129.412,1296C1104.314,1296,1079.216,1296,1054.118,1296C1029.02,1296,1003.922,1296,978.824,1296C953.725,1296,928.627,1296,903.529,1296C878.431,1296,853.333,1296,828.235,1296C803.137,1296,778.039,1296,752.941,1296C727.843,1296,702.745,1296,677.647,1296C652.549,1296,627.451,1296,602.353,1296C577.255,1296,552.157,1296,527.059,1296C501.961,1296,476.863,1296,451.765,1296C426.667,1296,401.569,1296,376.471,1296C351.373,1296,326.275,1296,301.176,1296C276.078,1296,250.98,1296,225.882,1296C200.784,1296,175.686,1296,150.588,1296C125.49,1296,100.392,1296,75.294,1296C50.196,1296,25.098,1296,12.549,1296L0,1296Z"></path><path fill="rgb(154, 217, 219)" d="M0,193.607L12.549,196.777C25.098,199.947,50.196,206.288,75.294,209.217C100.392,212.147,125.49,211.665,150.588,209.798C175.686,207.931,200.784,204.679,225.882,207.873C250.98,211.068,276.078,220.709,301.176,224.985C326.275,229.261,351.373,228.172,376.471,232.151C401.569,236.131,426.667,245.179,451.765,237.427C476.863,229.675,501.961,205.122,527.059,200.766C552.157,196.411,577.255,212.253,602.353,215.482C627.451,218.711,652.549,209.326,677.647,207.581C702.745,205.836,727.843,211.73,752.941,218.962C778.039,226.193,803.137,234.763,828.235,230.916C853.333,227.07,878.431,210.808,903.529,206.517C928.627,202.225,953.725,209.904,978.824,219.817C1003.922,229.73,1029.02,241.878,1054.118,235.843C1079.216,229.809,1104.314,205.593,1129.412,205.737C1154.51,205.88,1179.608,230.383,1204.706,234.433C1229.804,238.482,1254.902,222.078,1267.451,213.876L1280,205.674L1280,1152L1267.451,1152C1254.902,1152,1229.804,1152,1204.706,1152C1179.608,1152,1154.51,1152,1129.412,1152C1104.314,1152,1079.216,1152,1054.118,1152C1029.02,1152,1003.922,1152,978.824,1152C953.725,1152,928.627,1152,903.529,1152C878.431,1152,853.333,1152,828.235,1152C803.137,1152,778.039,1152,752.941,1152C727.843,1152,702.745,1152,677.647,1152C652.549,1152,627.451,1152,602.353,1152C577.255,1152,552.157,1152,527.059,1152C501.961,1152,476.863,1152,451.765,1152C426.667,1152,401.569,1152,376.471,1152C351.373,1152,326.275,1152,301.176,1152C276.078,1152,250.98,1152,225.882,1152C200.784,1152,175.686,1152,150.588,1152C125.49,1152,100.392,1152,75.294,1152C50.196,1152,25.098,1152,12.549,1152L0,1152Z"></path><path fill="rgb(200, 221, 204)" d="M0,331.895L12.549,335.023C25.098,338.151,50.196,344.406,75.294,344.991C100.392,345.576,125.49,340.49,150.588,340.931C175.686,341.372,200.784,347.339,225.882,346.782C250.98,346.226,276.078,339.145,301.176,336.387C326.275,333.629,351.373,335.194,376.471,341.406C401.569,347.618,426.667,358.478,451.765,355.48C476.863,352.482,501.961,335.626,527.059,334.233C552.157,332.84,577.255,346.91,602.353,351.096C627.451,355.283,652.549,349.586,677.647,351.677C702.745,353.768,727.843,363.648,752.941,362.474C778.039,361.3,803.137,349.072,828.235,339.668C853.333,330.263,878.431,323.683,903.529,320.924C928.627,318.166,953.725,319.23,978.824,327.516C1003.922,335.803,1029.02,351.313,1054.118,356.267C1079.216,361.221,1104.314,355.62,1129.412,354.167C1154.51,352.713,1179.608,355.407,1204.706,356.299C1229.804,357.19,1254.902,356.279,1267.451,355.824L1280,355.369L1280,1008L1267.451,1008C1254.902,1008,1229.804,1008,1204.706,1008C1179.608,1008,1154.51,1008,1129.412,1008C1104.314,1008,1079.216,1008,1054.118,1008C1029.02,1008,1003.922,1008,978.824,1008C953.725,1008,928.627,1008,903.529,1008C878.431,1008,853.333,1008,828.235,1008C803.137,1008,778.039,1008,752.941,1008C727.843,1008,702.745,1008,677.647,1008C652.549,1008,627.451,1008,602.353,1008C577.255,1008,552.157,1008,527.059,1008C501.961,1008,476.863,1008,451.765,1008C426.667,1008,401.569,1008,376.471,1008C351.373,1008,326.275,1008,301.176,1008C276.078,1008,250.98,1008,225.882,1008C200.784,1008,175.686,1008,150.588,1008C125.49,1008,100.392,1008,75.294,1008C50.196,1008,25.098,1008,12.549,1008L0,1008Z"></path><path fill="rgb(230, 187, 138)" d="M0,467.275L12.549,464.862C25.098,462.45,50.196,457.624,75.294,460C100.392,462.375,125.49,471.952,150.588,477.628C175.686,483.305,200.784,485.081,225.882,481.026C250.98,476.97,276.078,467.082,301.176,467.505C326.275,467.929,351.373,478.664,376.471,480.87C401.569,483.077,426.667,476.754,451.765,476.716C476.863,476.678,501.961,482.923,527.059,481.95C552.157,480.978,577.255,472.786,602.353,472.024C627.451,471.262,652.549,477.929,677.647,480.229C702.745,482.528,727.843,480.459,752.941,477.296C778.039,474.134,803.137,469.876,828.235,467.006C853.333,464.136,878.431,462.653,903.529,464.503C928.627,466.353,953.725,471.537,978.824,470.485C1003.922,469.433,1029.02,462.145,1054.118,462.134C1079.216,462.123,1104.314,469.389,1129.412,474.933C1154.51,480.477,1179.608,484.3,1204.706,486.031C1229.804,487.763,1254.902,487.403,1267.451,487.224L1280,487.044L1280,864L1267.451,864C1254.902,864,1229.804,864,1204.706,864C1179.608,864,1154.51,864,1129.412,864C1104.314,864,1079.216,864,1054.118,864C1029.02,864,1003.922,864,978.824,864C953.725,864,928.627,864,903.529,864C878.431,864,853.333,864,828.235,864C803.137,864,778.039,864,752.941,864C727.843,864,702.745,864,677.647,864C652.549,864,627.451,864,602.353,864C577.255,864,552.157,864,527.059,864C501.961,864,476.863,864,451.765,864C426.667,864,401.569,864,376.471,864C351.373,864,326.275,864,301.176,864C276.078,864,250.98,864,225.882,864C200.784,864,175.686,864,150.588,864C125.49,864,100.392,864,75.294,864C50.196,864,25.098,864,12.549,864L0,864Z"></path><path fill="rgb(243, 134, 48)" d="M0,587.479L12.549,589.098C25.098,590.716,50.196,593.953,75.294,595.87C100.392,597.786,125.49,598.383,150.588,597.981C175.686,597.58,200.784,596.182,225.882,597.04C250.98,597.897,276.078,601.011,301.176,599.336C326.275,597.66,351.373,591.195,376.471,588.653C401.569,586.111,426.667,587.493,451.765,590.833C476.863,594.173,501.961,599.471,527.059,600.221C552.157,600.971,577.255,597.171,602.353,595.906C627.451,594.642,652.549,595.912,677.647,595.574C702.745,595.236,727.843,593.29,752.941,594.321C778.039,595.352,803.137,599.36,828.235,599.052C853.333,598.744,878.431,594.12,903.529,592.955C928.627,591.789,953.725,594.08,978.824,596.279C1003.922,598.478,1029.02,600.584,1054.118,601.084C1079.216,601.585,1104.314,600.48,1129.412,599.865C1154.51,599.25,1179.608,599.125,1204.706,598.271C1229.804,597.416,1254.902,595.832,1267.451,595.04L1280,594.247L1280,720L1267.451,720C1254.902,720,1229.804,720,1204.706,720C1179.608,720,1154.51,720,1129.412,720C1104.314,720,1079.216,720,1054.118,720C1029.02,720,1003.922,720,978.824,720C953.725,720,928.627,720,903.529,720C878.431,720,853.333,720,828.235,720C803.137,720,778.039,720,752.941,720C727.843,720,702.745,720,677.647,720C652.549,720,627.451,720,602.353,720C577.255,720,552.157,720,527.059,720C501.961,720,476.863,720,451.765,720C426.667,720,401.569,720,376.471,720C351.373,720,326.275,720,301.176,720C276.078,720,250.98,720,225.882,720C200.784,720,175.686,720,150.588,720C125.49,720,100.392,720,75.294,720C50.196,720,25.098,720,12.549,720L0,720Z"></path></g></svg>